<svg width="512" height="512" viewBox="0 0 512 512" xmlns="http://www.w3.org/2000/svg">
  <defs>
    <linearGradient id="bgGradient" x1="0%" y1="0%" x2="100%" y2="100%">
      <stop offset="0%" style="stop-color:#3B82F6;stop-opacity:1" />
      <stop offset="100%" style="stop-color:#8B5CF6;stop-opacity:1" />
    </linearGradient>
    <linearGradient id="textGradient" x1="0%" y1="0%" x2="100%" y2="0%">
      <stop offset="0%" style="stop-color:#FFFFFF;stop-opacity:1" />
      <stop offset="100%" style="stop-color:#E0E7FF;stop-opacity:1" />
    </linearGradient>
  </defs>
  
  <!-- 背景圆形 -->
  <circle cx="256" cy="256" r="240" fill="url(#bgGradient)" />
  
  <!-- 游戏图标背景 -->
  <circle cx="256" cy="256" r="180" fill="rgba(255,255,255,0.1)" />
  
  <!-- 问号形状 -->
  <g transform="translate(256, 256)" fill="url(#textGradient)">
    <path d="M0,-80 C-22.09,-80 -40,-62.09 -40,-40 C-40,-26.863 -31.863,-15.726 -20,-10.736 L-20,0 L20,0 L20,-20 C20,-33.137 11.863,-44.274 0,-49.264 C-8.284,-52.583 -12,-57.583 -12,-64 C-12,-71.732 -5.732,-78 2,-78 C9.732,-78 16,-71.732 16,-64 L20,-64 C20,-49.193 8.807,-38 -4,-38 C-16.807,-38 -28,-49.193 -28,-62 C-28,-74.807 -16.807,-86 -4,-86 C8.807,-86 20,-74.807 20,-62 L20,-80 L0,-80 Z" />
    <circle cx="0" cy="30" r="10" />
  </g>
  
  <!-- 数字泡泡装饰 -->
  <g fill="rgba(255,255,255,0.2)">
    <circle cx="150" cy="150" r="25" />
    <circle cx="362" cy="150" r="20" />
    <circle cx="150" cy="362" r="20" />
    <circle cx="362" cy="362" r="25" />
  </g>
  
  <!-- 数字文本 -->
  <text x="150" y="165" text-anchor="middle" fill="white" font-size="24" font-weight="bold">7</text>
  <text x="362" y="165" text-anchor="middle" fill="white" font-size="20" font-weight="bold">3</text>
  <text x="150" y="375" text-anchor="middle" fill="white" font-size="20" font-weight="bold">9</text>
  <text x="362" y="375" text-anchor="middle" fill="white" font-size="24" font-weight="bold">5</text>
</svg>